<svg 
  role="img"
  xmlns="http://www.w3.org/2000/svg" 
  viewBox="0 0 400 400"
  >
  <defs>
    <style>
      .Icon__main--icon{
        fill: #ecedee;
        text-decoration: none;
        transition: all .3s;
      }
      
      .Icon__main:hover .Icon__main--icon {
        fill: #3bad35;
      }
    </style>
  </defs>
  <a 
    xmlns="http://www.w3.org/2000/svg" 
    class="Icon__main"
    xlink:href="https://twitter.com/robert430404" 
    xmlns:xlink="http://www.w3.org/1999/xlink" 
    target="_blank"
  >
    <rect x="0" y="0" width="100%" height="100%" fill-opacity="0"/>
    <path
      class="Icon__main--icon"
      d="m 125.59451,362.5 c 150.70701,0 233.13739,-124.85966 233.13739,-233.13741 0,-3.54641 0,-7.07687 -0.23962,-10.59134 A 166.71384,166.71384 0 0 0 399.37201,76.35794 163.55082,163.55082 0 0 1 352.31003,89.24968 82.222709,82.222709 0 0 0 388.33338,43.928926 164.20581,164.20581 0 0 1 336.30318,63.81766 82.015035,82.015035 0 0 0 196.66674,138.54814 232.62621,232.62621 0 0 1 27.796292,52.938776 81.999061,81.999061 0 0 0 53.164402,162.31878 81.328116,81.328116 0 0 1 15.974881,152.06291 c 0,0.33545 0,0.68691 0,1.03837 a 81.967112,81.967112 0 0 0 65.736633,80.32168 81.807362,81.807362 0 0 1 -36.997824,1.40579 82.031011,82.031011 0 0 0 76.55162,56.90253 A 164.41348,164.41348 0 0 1 19.505329,326.87602 166.79372,166.79372 0 0 1 0,325.69387 231.97123,231.97123 0 0 0 125.59451,362.43609"
    />
  </a>
</svg>
